<?xml version="1.0" encoding="utf-8"?>
<!-- Generator: Adobe Illustrator 16.0.3, SVG Export Plug-In . SVG Version: 6.00 Build 0)  -->
<!DOCTYPE svg PUBLIC "-//W3C//DTD SVG 1.1//EN" "http://www.w3.org/Graphics/SVG/1.1/DTD/svg11.dtd">
<svg version="1.1" id="Layer_1" xmlns="http://www.w3.org/2000/svg" xmlns:xlink="http://www.w3.org/1999/xlink" x="0px" y="0px"
	 width="1024px" height="768px" viewBox="0 0 1024 768" enable-background="new 0 0 1024 768" xml:space="preserve">
<ellipse id="flare-calendar" transform="matrix(0.8154 0.5789 -0.5789 0.8154 328.9265 -221.3711)" fill="#00F2C3" cx="511.579" cy="405.08" rx="147.789" ry="174.078"/>
<ellipse id="flare-chat" transform="matrix(0.8294 -0.5587 0.5587 0.8294 -110.9697 362.5637)" fill="#F900E7" cx="538.071" cy="362.951" rx="189.469" ry="134.79"/>
<ellipse id="flare-videos" transform="matrix(0.8294 -0.5587 0.5587 0.8294 -117.0128 331.2119)" fill="#EDB015" cx="483.723" cy="357.168" rx="178.04" ry="156.286"/>
<text id="player-title" transform="matrix(0.6824 0 0 1 422.0933 357.4404)" fill="#FFFFFF" font-family="'MyriadPro-Regular'" font-size="19.8818">Amy whinouse - csjbwhfihvisp</text>
<polygon id="player-play" fill="#FFFFFF" points="508,317.076 508,337.605 519.056,327.341 "/>
<g id="player-back">
	<polyline fill="none" stroke="#FFFFFF" stroke-linecap="round" stroke-miterlimit="10" points="495.586,335.366 486.944,327.341 
		495.586,319.315 	"/>
	<polyline fill="none" stroke="#FFFFFF" stroke-linecap="round" stroke-miterlimit="10" points="501.799,337.605 490.745,327.341 
		501.799,317.076 	"/>
</g>
<text transform="matrix(1.1846 0 0 1 414.668 410.084)" fill="#FFFFFF" font-family="'.LucidaGrandeUI'" font-size="23.1531">COSMODROM</text>
<line fill="none" stroke="#FFFFFF" stroke-miterlimit="10" stroke-dasharray="1,5" x1="415" y1="383.5" x2="593" y2="383.5"/>
<line fill="none" stroke="#FFFFFF" stroke-miterlimit="10" stroke-dasharray="1,5" x1="415" y1="421.5" x2="593" y2="421.5"/>
</svg>
